<?xml version="1.0" encoding="UTF-8"?>
<svg xmlns="http://www.w3.org/2000/svg" xmlns:xlink="http://www.w3.org/1999/xlink" width="375pt" height="374.999991pt" viewBox="0 0 375 374.999991" version="1.2">
<defs>
<clipPath id="clip1">
  <path d="M 3.410156 15.703125 L 371.660156 15.703125 L 371.660156 353.203125 L 3.410156 353.203125 Z M 3.410156 15.703125 "/>
</clipPath>
</defs>
<g id="surface1">
<g clip-path="url(#clip1)" clip-rule="nonzero">
<path style=" stroke:none;fill-rule:nonzero;fill:#d1d0cc;fill-opacity:1;" d="M 80.535156 15.582031 C 78.808594 15.558594 77.128906 15.820312 75.488281 16.363281 C 73.851562 16.910156 72.347656 17.707031 70.980469 18.757812 C 70.980469 18.757812 3.492188 70.25 3.492188 169.113281 L 3.492188 322.519531 C 3.492188 339.472656 17.21875 353.203125 34.164062 353.203125 L 126.1875 353.203125 C 143.132812 353.203125 156.859375 339.472656 156.859375 322.519531 L 156.859375 199.792969 C 156.859375 182.84375 143.132812 169.113281 126.1875 169.113281 L 64.210938 169.113281 C 63.828125 141.796875 66.5 83.371094 92.789062 39.851562 C 93.601562 38.714844 94.25 37.488281 94.726562 36.171875 C 95.207031 34.855469 95.5 33.496094 95.605469 32.101562 C 95.714844 30.703125 95.632812 29.320312 95.359375 27.945312 C 95.089844 26.570312 94.636719 25.257812 94.007812 24.007812 C 93.375 22.757812 92.585938 21.617188 91.644531 20.582031 C 90.699219 19.546875 89.632812 18.660156 88.445312 17.914062 C 87.257812 17.171875 85.992188 16.605469 84.652344 16.207031 C 83.308594 15.8125 81.9375 15.605469 80.535156 15.582031 Z M 295.253906 15.582031 C 293.527344 15.558594 291.847656 15.820312 290.207031 16.363281 C 288.570312 16.910156 287.066406 17.707031 285.699219 18.757812 C 285.699219 18.757812 218.210938 70.25 218.210938 169.113281 L 218.210938 322.519531 C 218.210938 339.472656 231.9375 353.203125 248.882812 353.203125 L 340.90625 353.203125 C 357.851562 353.203125 371.578125 339.472656 371.578125 322.519531 L 371.578125 199.792969 C 371.578125 182.84375 357.851562 169.113281 340.90625 169.113281 L 278.929688 169.113281 C 278.546875 141.796875 281.21875 83.371094 307.503906 39.851562 C 308.320312 38.714844 308.96875 37.488281 309.445312 36.171875 C 309.925781 34.855469 310.21875 33.496094 310.324219 32.101562 C 310.433594 30.703125 310.351562 29.320312 310.078125 27.945312 C 309.808594 26.570312 309.355469 25.257812 308.722656 24.007812 C 308.09375 22.757812 307.304688 21.617188 306.359375 20.582031 C 305.417969 19.546875 304.351562 18.660156 303.164062 17.914062 C 301.976562 17.171875 300.710938 16.605469 299.367188 16.207031 C 298.027344 15.8125 296.652344 15.605469 295.253906 15.582031 Z M 295.253906 15.582031 "/>
</g>
</g>
</svg>
