<?xml version="1.0" encoding="UTF-8"?>
<svg xmlns="http://www.w3.org/2000/svg" xmlns:xlink="http://www.w3.org/1999/xlink" width="810pt" height="809.999993pt" viewBox="0 0 810 809.999993" version="1.2">
<defs>
<clipPath id="clip1">
  <path d="M 20.011719 105.671875 L 790.261719 105.671875 L 790.261719 704.171875 L 20.011719 704.171875 Z M 20.011719 105.671875 "/>
</clipPath>
</defs>
<g id="surface1">
<g clip-path="url(#clip1)" clip-rule="nonzero">
<path style=" stroke:none;fill-rule:nonzero;fill:rgb(81.959534%,81.568909%,79.998779%);fill-opacity:1;" d="M 254.835938 105.671875 C 241.316406 105.671875 228.664062 112.015625 220.582031 122.871094 L 37.027344 369.269531 C 26.074219 384.019531 20.148438 401.902344 20.148438 420.285156 L 20.148438 619.839844 C 20.148438 667.082031 58.433594 705.339844 105.703125 705.339844 L 276.808594 705.339844 C 324.078125 705.339844 362.363281 667.082031 362.363281 619.839844 L 362.363281 448.839844 C 362.363281 401.644531 324.078125 363.339844 276.808594 363.339844 L 148.0625 363.339844 L 289.171875 173.890625 C 310.132812 145.714844 290.039062 105.671875 254.835938 105.671875 Z M 681.765625 105.671875 C 668.246094 105.671875 655.511719 112.015625 647.425781 122.871094 L 464.792969 368.101562 C 453.839844 382.851562 447.914062 400.691406 447.914062 419.117188 L 447.914062 618.671875 C 447.914062 665.910156 486.199219 704.171875 533.46875 704.171875 L 704.574219 704.171875 C 751.839844 704.171875 790.125 665.910156 790.125 618.671875 L 790.125 447.671875 C 790.125 400.433594 751.839844 362.171875 704.574219 362.171875 L 575.828125 362.171875 L 716.101562 173.972656 C 737.0625 145.757812 716.96875 105.671875 681.765625 105.671875 Z M 681.765625 105.671875 "/>
</g>
</g>
</svg>
